<svg width="180" height="70" viewBox="0 0 180 70" fill="none" xmlns="http://www.w3.org/2000/svg">
<path d="M55.6279 9.6L65.7879 34.52L75.9079 9.6H78.8279L67.0679 38H64.5079L52.7079 9.6H55.6279ZM98.7932 14.92C98.3932 14.4667 97.9266 14.0667 97.3932 13.72C96.8599 13.3467 96.2599 13.0267 95.5932 12.76C94.9266 12.4933 94.2066 12.28 93.4332 12.12C92.6866 11.96 91.8866 11.88 91.0332 11.88C88.5532 11.88 86.7266 12.36 85.5532 13.32C84.4066 14.2533 83.8332 15.5333 83.8332 17.16C83.8332 18.28 84.0999 19.16 84.6332 19.8C85.1932 20.44 86.0599 20.96 87.2332 21.36C88.4066 21.76 89.8999 22.1733 91.7132 22.6C93.7399 23.0267 95.4866 23.5333 96.9532 24.12C98.4199 24.7067 99.5532 25.5067 100.353 26.52C101.153 27.5067 101.553 28.8533 101.553 30.56C101.553 31.8667 101.3 33 100.793 33.96C100.287 34.92 99.5799 35.72 98.6732 36.36C97.7666 37 96.6866 37.48 95.4332 37.8C94.1799 38.0933 92.8066 38.24 91.3132 38.24C89.8466 38.24 88.4332 38.0933 87.0732 37.8C85.7399 37.48 84.4732 37.0267 83.2732 36.44C82.0732 35.8267 80.9532 35.0533 79.9132 34.12L81.3132 31.84C81.8199 32.3733 82.4199 32.88 83.1132 33.36C83.8332 33.8133 84.6199 34.2267 85.4732 34.6C86.3532 34.9733 87.2866 35.2667 88.2732 35.48C89.2866 35.6667 90.3266 35.76 91.3932 35.76C93.6599 35.76 95.4199 35.3467 96.6732 34.52C97.9532 33.6933 98.5932 32.4667 98.5932 30.84C98.5932 29.6667 98.2732 28.7333 97.6332 28.04C96.9932 27.32 96.0332 26.7333 94.7532 26.28C93.4732 25.8267 91.8999 25.3867 90.0332 24.96C88.0599 24.5067 86.3932 24 85.0332 23.44C83.6732 22.88 82.6466 22.1467 81.9532 21.24C81.2866 20.3067 80.9532 19.08 80.9532 17.56C80.9532 15.8 81.3799 14.32 82.2332 13.12C83.1132 11.8933 84.3132 10.9733 85.8332 10.36C87.3532 9.72 89.0999 9.4 91.0732 9.4C92.3266 9.4 93.4866 9.53333 94.5532 9.8C95.6466 10.04 96.6466 10.4 97.5532 10.88C98.4866 11.36 99.3532 11.96 100.153 12.68L98.7932 14.92ZM106.49 38V9.6H118.25C119.477 9.6 120.597 9.85333 121.61 10.36C122.65 10.8667 123.543 11.56 124.29 12.44C125.037 13.2933 125.623 14.2533 126.05 15.32C126.477 16.36 126.69 17.4267 126.69 18.52C126.69 20.0667 126.343 21.5333 125.65 22.92C124.983 24.28 124.037 25.3867 122.81 26.24C121.583 27.0933 120.143 27.52 118.49 27.52H109.29V38H106.49ZM109.29 25.04H118.37C119.49 25.04 120.463 24.7333 121.29 24.12C122.117 23.5067 122.757 22.7067 123.21 21.72C123.663 20.7333 123.89 19.6667 123.89 18.52C123.89 17.3467 123.623 16.2667 123.09 15.28C122.557 14.2933 121.85 13.52 120.97 12.96C120.117 12.3733 119.17 12.08 118.13 12.08H109.29V25.04Z" fill="url(#paint0_linear_901_9)"/>
<path d="M8.2877 44.8154L14.6377 60.3904L20.9627 44.8154H22.7877L15.4377 62.5654H13.8377L6.4627 44.8154H8.2877ZM24.9805 62.5654V49.5404H26.6805V62.5654H24.9805ZM24.9805 46.8154V44.3154H26.6805V46.8154H24.9805ZM41.3748 62.5654H39.6748V55.2904C39.6748 53.7571 39.4498 52.6404 38.9998 51.9404C38.5498 51.2238 37.8415 50.8654 36.8748 50.8654C36.2081 50.8654 35.5498 51.0321 34.8998 51.3654C34.2498 51.6821 33.6748 52.1238 33.1748 52.6904C32.6915 53.2404 32.3415 53.8738 32.1248 54.5904V62.5654H30.4248V49.5404H31.9748V52.4904C32.3248 51.8571 32.7831 51.3071 33.3498 50.8404C33.9165 50.3571 34.5581 49.9821 35.2748 49.7154C35.9915 49.4488 36.7331 49.3154 37.4998 49.3154C38.2165 49.3154 38.8248 49.4488 39.3248 49.7154C39.8248 49.9821 40.2248 50.3654 40.5248 50.8654C40.8248 51.3488 41.0415 51.9404 41.1748 52.6404C41.3081 53.3238 41.3748 54.0904 41.3748 54.9404V62.5654ZM43.95 58.8154C43.95 57.9988 44.1833 57.2988 44.65 56.7154C45.1167 56.1154 45.7583 55.6571 46.575 55.3404C47.4083 55.0071 48.3667 54.8404 49.45 54.8404C50.0833 54.8404 50.7417 54.8904 51.425 54.9904C52.1083 55.0904 52.7167 55.2404 53.25 55.4404V54.3404C53.25 53.2404 52.925 52.3654 52.275 51.7154C51.625 51.0654 50.725 50.7404 49.575 50.7404C48.875 50.7404 48.1833 50.8738 47.5 51.1404C46.8333 51.3904 46.1333 51.7654 45.4 52.2654L44.75 51.0654C45.6 50.4821 46.4333 50.0488 47.25 49.7654C48.0667 49.4654 48.9 49.3154 49.75 49.3154C51.35 49.3154 52.6167 49.7738 53.55 50.6904C54.4833 51.6071 54.95 52.8738 54.95 54.4904V60.5154C54.95 60.7488 55 60.9238 55.1 61.0404C55.2 61.1404 55.3583 61.1988 55.575 61.2154V62.5654C55.3917 62.5821 55.2333 62.5988 55.1 62.6154C54.9667 62.6321 54.8667 62.6321 54.8 62.6154C54.3833 62.5988 54.0667 62.4654 53.85 62.2154C53.6333 61.9654 53.5167 61.6988 53.5 61.4154L53.475 60.4654C52.8917 61.2154 52.1333 61.7988 51.2 62.2154C50.2667 62.6154 49.3167 62.8154 48.35 62.8154C47.5167 62.8154 46.7583 62.6404 46.075 62.2904C45.4083 61.9238 44.8833 61.4404 44.5 60.8404C44.1333 60.2238 43.95 59.5488 43.95 58.8154ZM52.675 59.8154C52.8583 59.5821 53 59.3571 53.1 59.1404C53.2 58.9238 53.25 58.7321 53.25 58.5654V56.6654C52.6833 56.4488 52.0917 56.2821 51.475 56.1654C50.875 56.0488 50.2667 55.9904 49.65 55.9904C48.4333 55.9904 47.45 56.2321 46.7 56.7154C45.95 57.1988 45.575 57.8571 45.575 58.6904C45.575 59.1738 45.7 59.6321 45.95 60.0654C46.2 60.4821 46.5667 60.8321 47.05 61.1154C47.5333 61.3821 48.1 61.5154 48.75 61.5154C49.5667 61.5154 50.325 61.3571 51.025 61.0404C51.7417 60.7238 52.2917 60.3154 52.675 59.8154ZM58.9824 66.5654C59.2158 66.5821 59.4408 66.5904 59.6574 66.5904C59.8741 66.6071 60.0324 66.5988 60.1324 66.5654C60.3324 66.5321 60.5241 66.4154 60.7074 66.2154C60.8908 66.0154 61.1074 65.6321 61.3574 65.0654C61.6074 64.4988 61.9574 63.6654 62.4074 62.5654L56.7324 49.5404H58.5324L63.3074 60.8154L67.7074 49.5404H69.4074L62.6574 66.3404C62.5408 66.6571 62.3658 66.9488 62.1324 67.2154C61.8991 67.4988 61.6074 67.7154 61.2574 67.8654C60.9241 68.0321 60.5074 68.1238 60.0074 68.1404C59.8574 68.1571 59.6991 68.1571 59.5324 68.1404C59.3824 68.1404 59.1991 68.1238 58.9824 68.0904V66.5654ZM70.3904 58.8154C70.3904 57.9988 70.6238 57.2988 71.0904 56.7154C71.5571 56.1154 72.1988 55.6571 73.0154 55.3404C73.8488 55.0071 74.8071 54.8404 75.8904 54.8404C76.5238 54.8404 77.1821 54.8904 77.8654 54.9904C78.5488 55.0904 79.1571 55.2404 79.6904 55.4404V54.3404C79.6904 53.2404 79.3654 52.3654 78.7154 51.7154C78.0654 51.0654 77.1654 50.7404 76.0154 50.7404C75.3154 50.7404 74.6238 50.8738 73.9404 51.1404C73.2738 51.3904 72.5738 51.7654 71.8404 52.2654L71.1904 51.0654C72.0404 50.4821 72.8738 50.0488 73.6904 49.7654C74.5071 49.4654 75.3404 49.3154 76.1904 49.3154C77.7904 49.3154 79.0571 49.7738 79.9904 50.6904C80.9238 51.6071 81.3904 52.8738 81.3904 54.4904V60.5154C81.3904 60.7488 81.4404 60.9238 81.5404 61.0404C81.6404 61.1404 81.7988 61.1988 82.0154 61.2154V62.5654C81.8321 62.5821 81.6738 62.5988 81.5404 62.6154C81.4071 62.6321 81.3071 62.6321 81.2404 62.6154C80.8238 62.5988 80.5071 62.4654 80.2904 62.2154C80.0738 61.9654 79.9571 61.6988 79.9404 61.4154L79.9154 60.4654C79.3321 61.2154 78.5738 61.7988 77.6404 62.2154C76.7071 62.6154 75.7571 62.8154 74.7904 62.8154C73.9571 62.8154 73.1988 62.6404 72.5154 62.2904C71.8488 61.9238 71.3238 61.4404 70.9404 60.8404C70.5738 60.2238 70.3904 59.5488 70.3904 58.8154ZM79.1154 59.8154C79.2988 59.5821 79.4404 59.3571 79.5404 59.1404C79.6404 58.9238 79.6904 58.7321 79.6904 58.5654V56.6654C79.1238 56.4488 78.5321 56.2821 77.9154 56.1654C77.3154 56.0488 76.7071 55.9904 76.0904 55.9904C74.8738 55.9904 73.8904 56.2321 73.1404 56.7154C72.3904 57.1988 72.0154 57.8571 72.0154 58.6904C72.0154 59.1738 72.1404 59.6321 72.3904 60.0654C72.6404 60.4821 73.0071 60.8321 73.4904 61.1154C73.9738 61.3821 74.5404 61.5154 75.1904 61.5154C76.0071 61.5154 76.7654 61.3571 77.4654 61.0404C78.1821 60.7238 78.7321 60.3154 79.1154 59.8154ZM94.3635 62.5654L89.5385 55.8904L86.7635 58.4904V62.5654H85.0635V44.3154H86.7635V56.6654L94.1385 49.5654H96.0135L90.6885 54.8904L96.2135 62.5654H94.3635Z" fill="#020000"/>
<path d="M105.042 62.5654V44.8154H112.392C113.159 44.8154 113.859 44.9738 114.492 45.2904C115.142 45.6071 115.701 46.0404 116.167 46.5904C116.634 47.1238 117.001 47.7238 117.267 48.3904C117.534 49.0404 117.667 49.7071 117.667 50.3904C117.667 51.3571 117.451 52.2738 117.017 53.1404C116.601 53.9904 116.009 54.6821 115.242 55.2154C114.476 55.7488 113.576 56.0154 112.542 56.0154H106.792V62.5654H105.042ZM106.792 54.4654H112.467C113.167 54.4654 113.776 54.2738 114.292 53.8904C114.809 53.5071 115.209 53.0071 115.492 52.3904C115.776 51.7738 115.917 51.1071 115.917 50.3904C115.917 49.6571 115.751 48.9821 115.417 48.3654C115.084 47.7488 114.642 47.2654 114.092 46.9154C113.559 46.5488 112.967 46.3654 112.317 46.3654H106.792V54.4654ZM119.048 58.8154C119.048 57.9988 119.281 57.2988 119.748 56.7154C120.214 56.1154 120.856 55.6571 121.673 55.3404C122.506 55.0071 123.464 54.8404 124.548 54.8404C125.181 54.8404 125.839 54.8904 126.523 54.9904C127.206 55.0904 127.814 55.2404 128.348 55.4404V54.3404C128.348 53.2404 128.023 52.3654 127.373 51.7154C126.723 51.0654 125.823 50.7404 124.673 50.7404C123.973 50.7404 123.281 50.8738 122.598 51.1404C121.931 51.3904 121.231 51.7654 120.498 52.2654L119.848 51.0654C120.698 50.4821 121.531 50.0488 122.348 49.7654C123.164 49.4654 123.998 49.3154 124.848 49.3154C126.448 49.3154 127.714 49.7738 128.648 50.6904C129.581 51.6071 130.048 52.8738 130.048 54.4904V60.5154C130.048 60.7488 130.098 60.9238 130.198 61.0404C130.298 61.1404 130.456 61.1988 130.673 61.2154V62.5654C130.489 62.5821 130.331 62.5988 130.198 62.6154C130.064 62.6321 129.964 62.6321 129.898 62.6154C129.481 62.5988 129.164 62.4654 128.948 62.2154C128.731 61.9654 128.614 61.6988 128.598 61.4154L128.573 60.4654C127.989 61.2154 127.231 61.7988 126.298 62.2154C125.364 62.6154 124.414 62.8154 123.448 62.8154C122.614 62.8154 121.856 62.6404 121.173 62.2904C120.506 61.9238 119.981 61.4404 119.598 60.8404C119.231 60.2238 119.048 59.5488 119.048 58.8154ZM127.773 59.8154C127.956 59.5821 128.098 59.3571 128.198 59.1404C128.298 58.9238 128.348 58.7321 128.348 58.5654V56.6654C127.781 56.4488 127.189 56.2821 126.573 56.1654C125.973 56.0488 125.364 55.9904 124.748 55.9904C123.531 55.9904 122.548 56.2321 121.798 56.7154C121.048 57.1988 120.673 57.8571 120.673 58.6904C120.673 59.1738 120.798 59.6321 121.048 60.0654C121.298 60.4821 121.664 60.8321 122.148 61.1154C122.631 61.3821 123.198 61.5154 123.848 61.5154C124.664 61.5154 125.423 61.3571 126.123 61.0404C126.839 60.7238 127.389 60.3154 127.773 59.8154ZM149.73 49.5404H151.405L145.805 62.5654H144.33L141.605 56.0904L138.905 62.5654H137.43L131.83 49.5404H133.48L138.23 60.8154L140.63 54.9404L138.43 49.5654H139.955L141.605 53.7904L143.28 49.5654H144.78L142.605 54.9404L145.005 60.8154L149.73 49.5404ZM152.3 58.8154C152.3 57.9988 152.533 57.2988 153 56.7154C153.466 56.1154 154.108 55.6571 154.925 55.3404C155.758 55.0071 156.716 54.8404 157.8 54.8404C158.433 54.8404 159.091 54.8904 159.775 54.9904C160.458 55.0904 161.066 55.2404 161.6 55.4404V54.3404C161.6 53.2404 161.275 52.3654 160.625 51.7154C159.975 51.0654 159.075 50.7404 157.925 50.7404C157.225 50.7404 156.533 50.8738 155.85 51.1404C155.183 51.3904 154.483 51.7654 153.75 52.2654L153.1 51.0654C153.95 50.4821 154.783 50.0488 155.6 49.7654C156.416 49.4654 157.25 49.3154 158.1 49.3154C159.7 49.3154 160.966 49.7738 161.9 50.6904C162.833 51.6071 163.3 52.8738 163.3 54.4904V60.5154C163.3 60.7488 163.35 60.9238 163.45 61.0404C163.55 61.1404 163.708 61.1988 163.925 61.2154V62.5654C163.741 62.5821 163.583 62.5988 163.45 62.6154C163.316 62.6321 163.216 62.6321 163.15 62.6154C162.733 62.5988 162.416 62.4654 162.2 62.2154C161.983 61.9654 161.866 61.6988 161.85 61.4154L161.825 60.4654C161.241 61.2154 160.483 61.7988 159.55 62.2154C158.616 62.6154 157.666 62.8154 156.7 62.8154C155.866 62.8154 155.108 62.6404 154.425 62.2904C153.758 61.9238 153.233 61.4404 152.85 60.8404C152.483 60.2238 152.3 59.5488 152.3 58.8154ZM161.025 59.8154C161.208 59.5821 161.35 59.3571 161.45 59.1404C161.55 58.9238 161.6 58.7321 161.6 58.5654V56.6654C161.033 56.4488 160.441 56.2821 159.825 56.1654C159.225 56.0488 158.616 55.9904 158 55.9904C156.783 55.9904 155.8 56.2321 155.05 56.7154C154.3 57.1988 153.925 57.8571 153.925 58.6904C153.925 59.1738 154.05 59.6321 154.3 60.0654C154.55 60.4821 154.916 60.8321 155.4 61.1154C155.883 61.3821 156.45 61.5154 157.1 61.5154C157.916 61.5154 158.675 61.3571 159.375 61.0404C160.091 60.7238 160.641 60.3154 161.025 59.8154ZM173.473 51.0404C172.339 51.0738 171.339 51.3904 170.473 51.9904C169.623 52.5904 169.023 53.4154 168.673 54.4654V62.5654H166.973V49.5404H168.573V52.6654C169.023 51.7488 169.614 51.0071 170.348 50.4404C171.098 49.8738 171.889 49.5571 172.723 49.4904C172.889 49.4738 173.031 49.4654 173.148 49.4654C173.281 49.4654 173.389 49.4738 173.473 49.4904V51.0404Z" fill="#CACACA"/>
<defs>
<linearGradient id="paint0_linear_901_9" x1="52" y1="14.5" x2="99" y2="31.5" gradientUnits="userSpaceOnUse">
<stop/>
<stop offset="1" stop-color="#CACACA"/>
</linearGradient>
</defs>
</svg>
